<?xml version="1.0"?>
<svg xmlns="http://www.w3.org/2000/svg" id="Capa_1" enable-background="new 0 0 512 512" height="512px" viewBox="0 0 512 512" width="512px" class=""><g><g><g><g><g><path d="m65.702 0c-36.229 0-65.702 29.474-65.702 65.702v373.609l91.159-9.555 18.411-191.896-18.411-237.86z" fill="#fee386" data-original="#FEE386" class="" style="fill:#202095" data-old_color="#fee386"/><g><path d="m91.159 0v401.074l159.935-16.763 32.078-177.814-32.078-206.497z" fill="#fdd752" data-original="#FDD752" class="" style="fill:#194C80" data-old_color="#fdd752"/><path d="m403.173 0h-152.079v386.601l152.079-15.829z" fill="#f8bd3f" data-original="#F8BD3F" class="" style="fill:#0E2A47" data-old_color="#f8bd3f"/></g><g><g><path d="m80.664 386.601c-29.413 0-53.258 23.844-53.258 53.258 0 .512.024 1.019.039 1.527.811 28.705 24.318 51.73 53.219 51.73h170.43v-106.515z" fill="#f7fcff" data-original="#F7FCFF" class=""/><path d="m360.568 441.43c0-.015.001-.03.001-.044.025-22.362 19.778-40.546 42.604-40.546l-26.251-14.239h-125.828v106.515h133.425l18.655-11.139c-22.842 0-42.606-18.165-42.606-40.547z" fill="#ecf3fb" data-original="#ECF3FB" class=""/></g><g><path d="m70.614 400.84h20.545l9.787-16.152-9.787-13.915h-20.545c-38.937-.001-70.614 31.676-70.614 70.613s31.677 70.614 70.614 70.614h20.545l13.161-15.032-13.161-15.032-20.545-.003c-22.357 0-40.546-18.189-40.546-40.546 0-22.358 18.189-40.547 40.546-40.547z" fill="#fdd752" data-original="#FDD752" class="" style="fill:#194C80" data-old_color="#fdd752"/></g></g><g><path d="m91.159 456.154h159.935l14.819-14.768-14.819-15.3h-159.935z" fill="#ecf3fb" data-original="#ECF3FB" class=""/><g fill="#f8bd3f"><path d="m91.159 370.772v30.068h159.935l13.225-14.239-13.225-15.829z" data-original="#F8BD3F" class="" style="fill:#0E2A47" data-old_color="#F8BD3F"/><path d="m91.159 512h159.935l17.137-12.898-17.137-17.145-159.935-.022z" data-original="#F8BD3F" class="" style="fill:#0E2A47" data-old_color="#F8BD3F"/></g></g><path d="m251.094 370.772h152.08v30.068h-152.08z" fill="#fd9326" data-original="#FD9326" class="active-path" style="fill:#04458F" data-old_color="#fd9326"/><path d="m363.401 456.154c-1.822-4.568-2.833-9.531-2.833-14.723 0-.015.001-.03.001-.044.006-5.412 1.106-10.576 3.082-15.3h-112.557v30.068h112.307z" fill="#e0e6f5" data-original="#E0E6F5" class=""/><g fill="#fee386"><path d="m200.984 88.171v29.945h50.11l14.819-14.973-14.819-14.972z" data-original="#FEE386" class="" style="fill:#202095" data-old_color="#FEE386"/><path d="m167.13 153.181v29.945h83.964l17.137-14.973-17.137-14.972z" data-original="#FEE386" class="" style="fill:#202095" data-old_color="#FEE386"/></g><g fill="#fdd752"><path d="m251.094 88.171h50.11v29.945h-50.11z" data-original="#FDD752" class="" style="fill:#194C80" data-old_color="#FDD752"/><path d="m251.094 153.181h83.963v29.945h-83.963z" data-original="#FDD752" class="" style="fill:#194C80" data-old_color="#FDD752"/></g></g><path d="m403.173 512v-30.023l-152.079-.02v30.043z" fill="#fd9326" data-original="#FD9326" class="active-path" style="fill:#04458F" data-old_color="#fd9326"/></g></g><g><path d="m294.441 403.221c0 59.981 48.798 108.779 108.78 108.779l18.297-102.702-18.297-114.856c-59.982 0-108.78 48.798-108.78 108.779z" fill="#89ce6d" data-original="#89CE6D" class=""/><path d="m403.221 294.442v217.559c59.981-.001 108.779-48.799 108.779-108.78s-48.798-108.779-108.779-108.779z" fill="#5eb16a" data-original="#5EB16A" class="" style="fill:#5EB16A" data-old_color="#5eb16a"/></g><g fill="#f7fcff"><path d="m403.22 354.35c-31.473 0-61.552 13.538-82.527 37.141l22.385 19.891c15.296-17.215 37.217-27.087 60.142-27.087l12.16-15.477z" data-original="#F7FCFF" class=""/><path d="m358.346 429.147 19.416 22.798c7.107-6.052 16.148-9.385 25.459-9.385l5.981-14.622-5.981-15.323c-16.42-.001-32.356 5.87-44.875 16.532z" data-original="#F7FCFF" class=""/></g><g fill="#ecf3fb"><path d="m403.221 354.35v29.945c22.924 0 44.844 9.873 60.142 27.087l22.385-19.891c-20.976-23.604-51.056-37.141-82.527-37.141z" data-original="#ECF3FB" class=""/><path d="m428.85 452.092 19.544-22.689c-12.569-10.826-28.612-16.789-45.174-16.789v29.945c9.393 0 18.495 3.386 25.63 9.533z" data-original="#ECF3FB" class=""/></g></g></g> </svg>
